<svg xmlns="http://www.w3.org/2000/svg" xmlns:xlink="http://www.w3.org/1999/xlink" width="20" height="20.004" viewBox="0 0 20 20.004">
  <defs>
    <clipPath id="clip-path">
      <rect width="20" height="20.004" fill="none"/>
    </clipPath>
  </defs>
  <g id="Wishlist_Icon" data-name="Wishlist Icon" clip-path="url(#clip-path)">
    <g id="Path_2" data-name="Path 2" transform="translate(-2 -1.999)" fill="none">
      <path d="M6.516,14.323l-1.49,6.452a1,1,0,0,0,1.529,1.057L12,18.2l5.445,3.63a1,1,0,0,0,1.517-1.106l-1.829-6.4,4.536-4.082a1,1,0,0,0-.59-1.74l-5.7-.454L12.911,2.589a1,1,0,0,0-1.822,0L8.622,8.05l-5.7.453A1,1,0,0,0,2.3,10.216Z" stroke="none"/>
      <path d="M 6.770946025848389 19.88525581359863 L 11.16794586181641 16.95392227172852 L 11.99999523162842 16.39922142028809 L 12.83204555511475 16.95392227172852 L 17.14582252502441 19.82978057861328 L 15.69073581695557 14.73817253112793 L 15.4333553314209 13.83757209777832 L 16.12960624694824 13.21101188659668 L 19.80110168457031 9.906990051269531 L 15.25891590118408 9.545271873474121 L 14.37575531005859 9.474931716918945 L 14.01100540161133 8.667531967163086 L 11.99999523162842 4.215920448303223 L 9.988986015319824 8.667531967163086 L 9.624165534973145 9.475102424621582 L 8.740816116333008 9.545291900634766 L 4.138190269470215 9.911016464233398 L 7.562925815582275 13.24879169464111 L 8.167485237121582 13.83799171447754 L 7.97752571105957 14.6605224609375 L 6.770946025848389 19.88525581359863 M 5.997295379638672 22.00238227844238 C 5.798847198486328 22.00237464904785 5.6004319190979 21.94329643249512 5.429765701293945 21.8253116607666 C 5.091825485229492 21.5916919708252 4.931575775146484 21.17484283447266 5.02599573135376 20.77500152587891 L 6.515995502471924 14.32300186157227 L 2.301995754241943 10.21600246429443 C 2.020965576171875 9.942091941833496 1.926125645637512 9.529111862182617 2.059495687484741 9.160032272338867 C 2.192865610122681 8.790951728820801 2.529785633087158 8.533991813659668 2.920995712280273 8.503002166748047 L 8.62199592590332 8.050002098083496 L 11.08899593353271 2.589002132415771 C 11.24969577789307 2.229782104492188 11.60647583007812 1.998532176017761 11.99999523162842 1.998532176017761 C 12.39352607727051 1.998532176017761 12.75030612945557 2.229782104492188 12.91099548339844 2.589002132415771 L 15.37799549102783 8.050002098083496 L 21.07899475097656 8.504002571105957 C 21.47732543945312 8.535622596740723 21.8185863494873 8.801332473754883 21.94689559936523 9.179741859436035 C 22.07520484924316 9.558152198791504 21.96593475341797 9.976632118225098 21.66899490356445 10.24400234222412 L 17.13299560546875 14.32600212097168 L 18.96199607849121 20.72600173950195 C 19.07581520080566 21.12899208068848 18.92676544189453 21.56023216247559 18.5883960723877 21.80693244934082 C 18.41299438476562 21.9348087310791 18.20598793029785 21.99907875061035 17.99863433837891 21.99907875061035 C 17.80597686767578 21.99907875061035 17.61301612854004 21.94356155395508 17.44499588012695 21.83200263977051 L 11.99999523162842 18.20200157165527 L 6.554995536804199 21.83200263977051 C 6.386355876922607 21.94564819335938 6.191810607910156 22.00238990783691 5.997295379638672 22.00238227844238 Z" stroke="none" fill="#2b2b2b"/>
    </g>
  </g>
</svg>
